<svg xmlns="http://www.w3.org/2000/svg" version="1.1" xmlns:xlink="http://www.w3.org/1999/xlink" xmlns:svgjs="http://svgjs.com/svgjs" width="1440" height="560" preserveAspectRatio="none" viewBox="0 0 1440 560" style="user-select: auto;"><g mask="url(&quot;#SvgjsMask1039&quot;)" fill="none" style="user-select: auto;"><rect width="1440" height="560" x="0" y="0" fill="rgba(81, 46, 95, 1)" style="user-select: auto;"></rect><path d="M0,324.301C62.524,315.862,121.033,302.358,180.149,280.318C254.774,252.496,349.949,246.818,390.959,178.545C431.88,110.42,400.991,22.189,381.475,-54.848C363.554,-125.587,330.218,-189.595,283.495,-245.65C236.05,-302.573,184.409,-366.993,111.286,-379.006C39.471,-390.804,-23.492,-336.237,-90.154,-307.035C-147.833,-281.768,-201.684,-255.637,-253.154,-219.359C-320.24,-172.073,-416.815,-142.42,-436.682,-62.785C-456.345,16.032,-387.203,87.832,-347.464,158.681C-310.886,223.894,-281.865,301.392,-214.369,333.564C-148.47,364.975,-72.346,334.065,0,324.301" fill="#42254d" style="user-select: auto;"></path><path d="M1440 962.479C1514.821 975.909 1588.771 931.903 1650.483 887.517 1710.158 844.596 1751.268 782.9590000000001 1782.2649999999999 716.307 1813.434 649.2860000000001 1836.953 577.562 1828.798 504.099 1820.497 429.31399999999996 1794.9470000000001 350.43399999999997 1736.405 303.164 1680.067 257.673 1596.728 283.173 1527.782 261.041 1456.223 238.07 1400.703 164.18599999999998 1325.893 171.387 1249.133 178.776 1187.818 239.459 1138.2559999999999 298.538 1089.213 356.998 1053.393 427.472 1047.253 503.532 1041.304 577.226 1061.827 652.915 1104.79 713.085 1144.18 768.251 1218.672 779.308 1273.056 819.77 1333.007 864.373 1366.452 949.277 1440 962.479" fill="#603771" style="user-select: auto;"></path></g><defs style="user-select: auto;"><mask id="SvgjsMask1039" style="user-select: auto;"><rect width="1440" height="560" fill="#ffffff" style="user-select: auto;"></rect></mask></defs></svg>